<?xml version="1.0" standalone="no"?>
<!DOCTYPE svg PUBLIC "-//W3C//DTD SVG 1.0//EN" "http://www.w3.org/TR/2001/REC-SVG-20010904/DTD/svg10.dtd">
<svg xmlns="http://www.w3.org/2000/svg" xmlns:xlink="http://www.w3.org/1999/xlink" id="body_1" width="300" height="223">

<g transform="matrix(3.228749 0 0 3.228749 0.30390224 -0)">
	<g transform="matrix(1 0 0 1 -504.542 -503.261)">
		<g transform="matrix(1 0 0 1 508.548 565.701)">
			<g>
                <path transform="matrix(1 0 0 1 -507.606 -550.645)"  d="M507.606 552.35C 507.60538 552.27783 507.66196 552.2182 507.73398 552.21497L507.73398 552.21497L509.37198 552.21497C 510.26263 552.21497 511.08566 552.6902 511.53098 553.4615C 511.97632 554.23285 511.97632 555.18317 511.53098 555.9545C 511.08566 556.7258 510.26263 557.20105 509.37198 557.201L509.37198 557.201L507.73398 557.201C 507.66196 557.19775 507.60538 557.1381 507.606 557.066L507.606 557.066L507.606 552.35zM509.29398 556.52496C 510.2947 556.52106 511.10385 555.70874 511.10385 554.708C 511.10385 553.7073 510.2947 552.89496 509.29398 552.891L509.29398 552.891L508.33298 552.891L508.33298 556.52496z" stroke="none" fill="#464545" fill-rule="nonzero" />
                <path transform="matrix(1 0 0 1 -506.133 -550.645)"  d="M512.4 552.35C 512.3997 552.3141 512.4139 552.27954 512.4393 552.2542C 512.4646 552.2288 512.49915 552.21466 512.53503 552.21497L512.53503 552.21497L515.38403 552.21497C 515.45874 552.21497 515.5195 552.27527 515.52 552.35L515.52 552.35L515.52 552.75C 515.52 552.82513 515.45917 552.886 515.38403 552.886L515.38403 552.886L513.13403 552.886L513.13403 554.339L515.03406 554.339C 515.1083 554.3411 515.1679 554.40076 515.17004 554.475L515.17004 554.475L515.17004 554.875C 515.17004 554.91095 515.1557 554.94543 515.1301 554.9708C 515.1046 554.99615 515.07 555.01025 515.03406 555.01L515.03406 555.01L513.13403 555.01L513.13403 556.542L515.38403 556.542C 515.45874 556.542 515.5195 556.6023 515.52 556.677L515.52 556.677L515.52 557.06903C 515.5195 557.14374 515.45874 557.20404 515.38403 557.20404L515.38403 557.20404L512.53 557.20404C 512.49414 557.20435 512.4596 557.1902 512.43427 557.1648C 512.4089 557.13947 512.3947 557.1049 512.395 557.06903L512.395 557.06903L512.4 552.35z" stroke="none" fill="#464545" fill-rule="nonzero" />
                <path transform="matrix(1 0 0 1 -504.934 -550.645)"  d="M516.295 552.35C 516.29553 552.27527 516.35626 552.21497 516.43097 552.21497L516.43097 552.21497L518.36896 552.21497C 518.7772 552.2107 519.17035 552.36914 519.46155 552.6553C 519.75275 552.9414 519.9181 553.3317 519.92096 553.74C 519.9024 554.3936 519.48346 554.9683 518.86694 555.186L518.86694 555.186L519.8419 556.99396C 519.8688 557.03644 519.86975 557.0903 519.8446 557.1337C 519.8194 557.17725 519.7721 557.20306 519.7219 557.2009L519.7219 557.2009L519.18695 557.2009C 519.1224 557.20526 519.0623 557.1678 519.03796 557.1079L519.03796 557.1079L518.10394 555.24994L517.02795 555.24994L517.02795 557.0659C 517.0254 557.1394 516.96643 557.19836 516.89294 557.2009L516.89294 557.2009L516.42993 557.2009C 516.3552 557.2009 516.2945 557.1406 516.29395 557.0659L516.29395 557.0659L516.295 552.35zM518.311 554.63696C 518.7933 554.62823 519.17993 554.23535 519.18097 553.753C 519.16693 553.28217 518.782 552.9074 518.311 552.906L518.311 552.906L517.04297 552.906L517.04297 554.637z" stroke="none" fill="#464545" fill-rule="nonzero" />
                <path transform="matrix(1 0 0 1 -503.673 -550.662)"  d="M521.281 552.267C 521.29626 552.2076 521.3478 552.1645 521.409 552.16003L521.409 552.16003L521.523 552.16003C 521.5745 552.16284 521.62085 552.19244 521.645 552.23804L521.645 552.23804L523.133 555.87805L523.162 555.87805L524.643 552.23804C 524.66583 552.1912 524.7129 552.16113 524.765 552.16003L524.765 552.16003L524.879 552.16003C 524.9402 552.1645 524.9917 552.2076 525.007 552.267L525.007 552.267L525.883 557.054C 525.898 557.0936 525.8912 557.1383 525.865 557.17163C 525.8388 557.205 525.79706 557.2222 525.755 557.21704L525.755 557.21704L525.292 557.21704C 525.23047 557.2153 525.17664 557.17535 525.157 557.11707L525.157 557.11707L524.62897 553.93304L524.608 553.93304L523.32495 557.21C 523.30707 557.2601 523.25793 557.292 523.20496 557.288L523.20496 557.288L523.07697 557.288C 523.0242 557.28973 522.97565 557.2587 522.95496 557.21L522.95496 557.21L521.66595 553.93304L521.63696 553.93304L521.12396 557.11707C 521.1077 557.1748 521.0559 557.21533 520.996 557.21704L520.996 557.21704L520.53296 557.21704C 520.4907 557.2209 520.44934 557.20374 520.4222 557.1712C 520.395 557.1387 520.3856 557.09485 520.397 557.054L520.397 557.054L521.281 552.267z" stroke="none" fill="#464545" fill-rule="nonzero" />
                <path transform="matrix(1 0 0 1 -501.993 -550.662)"  d="M528.414 552.16C 529.8306 552.1561 530.9821 553.30133 530.986 554.71796C 530.98987 556.1346 529.84467 557.2861 528.42804 557.29C 527.0114 557.2938 525.8599 556.1486 525.856 554.732C 525.85284 554.05133 526.12085 553.3974 526.6009 552.91473C 527.0809 552.4321 527.73334 552.1605 528.414 552.16zM528.414 556.59796C 529.1746 556.6093 529.8666 556.1595 530.165 555.4597C 530.4633 554.75995 530.3088 553.9492 529.7739 553.40826C 529.2391 552.8673 528.4302 552.7036 527.72705 552.994C 527.0239 553.28436 526.5663 553.9712 526.56903 554.73193C 526.5695 555.75446 527.39154 556.58685 528.414 556.6z" stroke="none" fill="#464545" fill-rule="nonzero" />
                <path transform="matrix(1 0 0 1 -500.393 -550.662)"  d="M533.63 552.16C 534.2691 552.14954 534.8874 552.38715 535.355 552.823C 535.3853 552.84686 535.4036 552.8828 535.40497 552.9214C 535.4063 552.9599 535.3906 552.9971 535.362 553.023L535.362 553.023L535.048 553.34503C 534.998 553.40906 534.93396 553.40906 534.87 553.34503C 534.52856 553.04553 534.09216 552.8766 533.638 552.86804C 532.6162 552.86993 531.78955 553.69977 531.7915 554.72156C 531.7934 555.7433 532.6232 556.56995 533.645 556.56805C 534.09595 556.5613 534.5299 556.39514 534.87 556.09906C 534.91693 556.05396 534.99005 556.05054 535.041 556.09106L535.041 556.09106L535.369 556.4111C 535.4198 556.4663 535.4162 556.55225 535.361 556.6031C 534.8982 557.0536 534.27576 557.3024 533.63 557.2951C 532.7136 557.2951 531.8668 556.8062 531.4086 556.0126C 530.95044 555.219 530.95044 554.2412 531.4086 553.4476C 531.8668 552.654 532.7136 552.1651 533.63 552.1651L533.63 552.1651L533.63 552.16z" stroke="none" fill="#464545" fill-rule="nonzero" />
                <path transform="matrix(1 0 0 1 -499.014 -550.662)"  d="M538.1 552.16C 539.5166 552.1561 540.6681 553.30133 540.672 554.71796C 540.67584 556.1346 539.53064 557.2861 538.114 557.29C 536.6974 557.2938 535.5459 556.1486 535.542 554.732C 535.5385 554.0513 535.80646 553.39716 536.2865 552.9145C 536.7666 552.43176 537.4192 552.1603 538.1 552.16zM538.1 556.59796C 538.8606 556.6093 539.55255 556.1595 539.85095 555.4597C 540.1493 554.75995 539.99475 553.9492 539.4599 553.40826C 538.92505 552.8673 538.11615 552.7036 537.413 552.994C 536.7099 553.28436 536.25226 553.9712 536.255 554.73193C 536.2555 555.75446 537.0775 556.58685 538.1 556.6z" stroke="none" fill="#464545" fill-rule="nonzero" />
                <path transform="matrix(1 0 0 1 -497.415 -550.662)"  d="M540.781 556.5L540.967 556.208C 540.9878 556.1644 541.02716 556.1325 541.07416 556.1213C 541.12115 556.11 541.1707 556.1206 541.209 556.15C 541.5048 556.46356 541.91675 556.64154 542.34796 556.642C 542.54376 556.66644 542.7409 556.6092 542.8932 556.48376C 543.0455 556.3584 543.1394 556.17584 543.15295 555.979C 543.15295 555.551 542.78296 555.279 542.07697 554.989C 541.35095 554.683 540.777 554.305 540.777 553.479C 540.79443 553.0917 540.9728 552.7292 541.2689 552.47894C 541.56506 552.22876 541.9522 552.11346 542.337 552.161C 542.808 552.16974 543.2662 552.3161 543.65497 552.58203C 543.69366 552.6077 543.7201 552.64813 543.7282 552.6938C 543.7363 552.7395 543.72546 552.78656 543.698 552.82404L543.698 552.82404L543.519 553.09503C 543.49896 553.141 543.45935 553.17554 543.4111 553.1891C 543.36285 553.20264 543.31104 553.19385 543.26996 553.16504C 542.9942 552.9491 542.6579 552.8246 542.308 552.809C 541.708 552.809 541.508 553.187 541.508 553.45C 541.508 553.857 541.821 554.106 542.408 554.35004C 543.234 554.68506 543.94 555.07605 543.94 555.95C 543.91296 556.3413 543.7289 556.7051 543.4297 556.95874C 543.1305 557.21234 542.7415 557.33435 542.351 557.297C 541.78894 557.3024 541.24426 557.1018 540.82 556.733C 540.76 556.67 540.7 556.62 540.781 556.5z" stroke="none" fill="#464545" fill-rule="nonzero" />
                <path transform="matrix(1 0 0 1 -496.276 -550.662)"  d="M545.333 552.267C 545.34827 552.2076 545.3998 552.1645 545.461 552.16003L545.461 552.16003L545.575 552.16003C 545.62604 552.1627 545.6718 552.19244 545.695 552.23804L545.695 552.23804L547.184 555.87805L547.213 555.87805L548.69403 552.23804C 548.71686 552.1912 548.7639 552.16113 548.81604 552.16003L548.81604 552.16003L548.93005 552.16003C 548.99115 552.16486 549.0425 552.20776 549.05804 552.267L549.05804 552.267L549.934 557.054C 549.94904 557.0936 549.9422 557.1383 549.916 557.17163C 549.88983 557.205 549.8481 557.2222 549.806 557.21704L549.806 557.21704L549.343 557.21704C 549.2814 557.2151 549.2273 557.17535 549.20703 557.11707L549.20703 557.11707L548.68005 553.93304L548.65906 553.93304L547.37604 557.21C 547.3576 557.25964 547.3089 557.2913 547.25604 557.288L547.25604 557.288L547.127 557.288C 547.07477 557.2892 547.02716 557.25824 547.007 557.21L547.007 557.21L545.718 553.93304L545.689 553.93304L545.176 557.11707C 545.15906 557.17426 545.10767 557.21436 545.04803 557.21704L545.04803 557.21704L544.585 557.21704C 544.54266 557.2213 544.5009 557.20435 544.4737 557.17163C 544.4464 557.139 544.4372 557.09485 544.44904 557.054L544.44904 557.054L545.333 552.267z" stroke="none" fill="#464545" fill-rule="nonzero" />
                <path transform="matrix(1 0 0 1 -494.514 -551.014)"  d="M550.175 552.719C 550.1747 552.6831 550.18884 552.64856 550.21423 552.6232C 550.23956 552.59784 550.2741 552.5837 550.31 552.584L550.31 552.584L553.159 552.584C 553.19495 552.58374 553.22955 552.59784 553.25507 552.62317C 553.28064 552.64856 553.295 552.68304 553.295 552.719L553.295 552.719L553.295 553.119C 553.295 553.19415 553.23413 553.255 553.159 553.255L553.159 553.255L550.909 553.255L550.909 554.708L552.809 554.708C 552.88324 554.71014 552.9429 554.7698 552.945 554.844L552.945 554.844L552.945 555.244C 552.945 555.27997 552.93066 555.31445 552.9051 555.33984C 552.8796 555.3652 552.845 555.3793 552.809 555.379L552.809 555.379L550.909 555.379L550.909 556.911L553.159 556.911C 553.2337 556.911 553.29443 556.9713 553.295 557.046L553.295 557.046L553.295 557.43805C 553.29443 557.51276 553.2337 557.57306 553.159 557.57306L553.159 557.57306L550.31 557.57306C 550.2742 557.57306 550.23987 557.55884 550.21454 557.5335C 550.1892 557.5082 550.175 557.4739 550.175 557.43805L550.175 557.43805L550.175 552.719zM551.058 552.019L550.958 551.819C 550.9351 551.76935 550.95374 551.71045 551.00104 551.683L551.00104 551.683L552.119 551.036C 552.16205 551.007 552.268 550.993 552.305 551.057L552.305 551.057L552.468 551.37103C 552.4877 551.39856 552.49414 551.4333 552.4859 551.466C 552.4776 551.4988 552.4553 551.5262 552.425 551.541L552.425 551.541L551.225 552.055C 551.136 552.1 551.086 552.085 551.058 552.021z" stroke="none" fill="#464545" fill-rule="nonzero" />
                <path transform="matrix(1 0 0 1 -493.423 -550.645)"  d="M555.018 552.884L553.857 552.884C 553.78186 552.884 553.721 552.8231 553.721 552.748L553.721 552.748L553.721 552.34796C 553.72156 552.27325 553.7823 552.21295 553.857 552.21295L553.857 552.21295L556.919 552.21295C 556.9937 552.21295 557.05444 552.27325 557.055 552.34796L557.055 552.34796L557.055 552.748C 557.055 552.8231 556.99414 552.884 556.919 552.884L556.919 552.884L555.758 552.884L555.758 557.066C 555.75543 557.13947 555.6965 557.1984 555.623 557.201L555.623 557.201L555.152 557.201C 555.0785 557.1984 555.01953 557.13947 555.01697 557.066L555.01697 557.066L555.018 552.884z" stroke="none" fill="#464545" fill-rule="nonzero" />
                <path transform="matrix(1 0 0 1 -492.209 -550.645)"  d="M557.671 552.35C 557.6736 552.2765 557.73254 552.2175 557.806 552.21497L557.806 552.21497L558.27704 552.21497C 558.3505 552.2175 558.4095 552.2765 558.41205 552.35L558.41205 552.35L558.41205 557.066C 558.4095 557.13947 558.3505 557.1984 558.27704 557.201L558.27704 557.201L557.806 557.201C 557.73254 557.1984 557.6736 557.13947 557.671 557.066L557.671 557.066L557.671 552.35z" stroke="none" fill="#464545" fill-rule="nonzero" />
                <path transform="matrix(1 0 0 1 -491.567 -550.662)"  d="M562.329 552.16C 562.96747 552.1497 563.585 552.3874 564.052 552.823C 564.08215 552.84686 564.1004 552.8827 564.1019 552.92114C 564.10345 552.95953 564.08813 552.99677 564.06 553.023L564.06 553.023L563.746 553.34503C 563.696 553.40906 563.63196 553.40906 563.568 553.34503C 563.22614 553.04565 562.7894 552.8767 562.335 552.86804C 561.31323 552.87024 560.48676 553.70026 560.48895 554.72205C 560.4912 555.7438 561.3212 556.57025 562.343 556.56805C 562.7938 556.5609 563.22766 556.3948 563.568 556.09906C 563.6149 556.05396 563.68805 556.05054 563.739 556.09106L563.739 556.09106L564.06604 556.4111C 564.09076 556.4373 564.10394 556.4725 564.1026 556.50854C 564.1013 556.5446 564.0856 556.5787 564.059 556.6031C 563.59607 557.0534 562.97375 557.3022 562.328 557.2951C 561.4116 557.2951 560.5648 556.8062 560.1066 556.0126C 559.64844 555.219 559.64844 554.2412 560.1066 553.4476C 560.5648 552.654 561.4116 552.1651 562.328 552.1651L562.328 552.1651L562.329 552.16z" stroke="none" fill="#464545" fill-rule="nonzero" />
                <path transform="matrix(1 0 0 1 -490.188 -550.662)"  d="M566.8 552.16C 568.2166 552.1561 569.3681 553.30133 569.372 554.71796C 569.37585 556.1346 568.23065 557.2861 566.814 557.29C 565.3974 557.2938 564.2459 556.1486 564.242 554.732C 564.23883 554.05133 564.50684 553.3974 564.9869 552.91473C 565.46686 552.4321 566.1193 552.1605 566.8 552.16zM566.8 556.59796C 567.5606 556.6093 568.25256 556.1595 568.55096 555.4597C 568.8493 554.75995 568.69476 553.9492 568.1599 553.40826C 567.62506 552.8673 566.81616 552.7036 566.11304 552.994C 565.4099 553.28436 564.9523 553.9712 564.955 554.73193C 564.9555 555.75446 565.7775 556.58685 566.8 556.6z" stroke="none" fill="#464545" fill-rule="nonzero" />
                <path transform="matrix(1 0 0 1 -488.589 -550.662)"  d="M569.479 556.5L569.665 556.208C 569.6858 556.1644 569.72516 556.1325 569.77216 556.1213C 569.81915 556.11 569.8687 556.1206 569.907 556.15C 570.2033 556.46356 570.61554 556.6415 571.047 556.642C 571.24274 556.66644 571.4399 556.6092 571.59216 556.48376C 571.74445 556.3584 571.8384 556.17584 571.852 555.979C 571.852 555.551 571.481 555.279 570.776 554.989C 570.049 554.683 569.476 554.305 569.476 553.479C 569.49365 553.0916 569.6722 552.7291 569.9685 552.47894C 570.26483 552.22876 570.65204 552.1135 571.037 552.161C 571.50775 552.16956 571.96564 552.316 572.354 552.58203C 572.39307 552.60736 572.4199 552.64777 572.4281 552.69366C 572.4363 552.73956 572.425 552.7868 572.39703 552.82404L572.39703 552.82404L572.21906 553.09503C 572.1988 553.141 572.159 553.1755 572.1106 553.1891C 572.0622 553.20264 572.01025 553.1938 571.96906 553.16504C 571.6938 552.9488 571.35767 552.8243 571.00806 552.809C 570.4081 552.809 570.202 553.187 570.202 553.45C 570.202 553.857 570.51605 554.106 571.10205 554.35004C 571.92804 554.68506 572.63306 555.07605 572.63306 555.95C 572.606 556.3413 572.42194 556.7051 572.12274 556.95874C 571.82355 557.21234 571.4346 557.33435 571.04407 557.297C 570.482 557.3024 569.9373 557.1018 569.51306 556.733C 569.458 556.67 569.4 556.62 569.479 556.5z" stroke="none" fill="#464545" fill-rule="nonzero" />
			</g>
		</g>
		<g transform="matrix(1 0 0 1 504.542 541.312)">
			<g>
                <path transform="matrix(1 0 0 1 -504.542 -532.362)"  d="M522.352 550.876L514.1 532.66C 513.99994 532.49554 513.8308 532.38525 513.63995 532.36L513.63995 532.36L513.36896 532.36C 513.1781 532.38525 513.009 532.49554 512.90894 532.66L512.90894 532.66L504.6 550.876C 504.51852 551.03 504.52734 551.21625 504.62308 551.36194C 504.7188 551.50757 504.88623 551.5896 505.06 551.576L505.06 551.576L506.766 551.576C 507.03513 551.5758 507.2789 551.41705 507.388 551.17096L507.388 551.17096L509.038 547.46295L510.093 545.13495L513.393 537.71893L513.528 537.71893L516.85803 545.13495L517.88605 547.46295L519.564 551.17096C 519.6622 551.42706 519.91425 551.59064 520.18805 551.576L520.18805 551.576L521.89307 551.576C 522.0667 551.58923 522.23376 551.507 522.3292 551.36145C 522.4246 551.2158 522.4334 551.0299 522.352 550.876z" stroke="none" fill="#464545" fill-rule="nonzero" />
                <path transform="matrix(1 0 0 1 -499.691 -532.298)"  d="M520.315 533.084C 520.3114 532.80927 520.52655 532.58136 520.801 532.569L520.801 532.569L527.026 532.569C 530.4106 532.569 533.538 534.37463 535.2303 537.3057C 536.9226 540.2368 536.9226 543.84814 535.2303 546.77924C 533.538 549.7103 530.4106 551.516 527.026 551.516L527.026 551.516L520.8 551.516C 520.52576 551.50415 520.3105 551.27655 520.31396 551.002L520.31396 551.002L520.315 533.084zM526.73 548.945C 530.5372 548.93994 533.6208 545.85223 533.6208 542.04504C 533.6208 538.23785 530.5372 535.15015 526.73 535.145L526.73 535.145L523.07495 535.145L523.07495 548.945z" stroke="none" fill="#464545" fill-rule="nonzero" />
                <path transform="matrix(1 0 0 1 -495.215 -532.362)"  d="M544.637 532.362C 547.0637 532.3232 549.4112 533.2256 551.187 534.88C 551.30054 534.971 551.3688 535.10693 551.37396 535.2523C 551.37915 535.3977 551.32074 535.5382 551.214 535.637L551.214 535.637L550.023 536.856C 549.833 537.099 549.59 537.099 549.347 536.856C 548.0484 535.71924 546.3905 535.0769 544.665 535.042C 540.8724 535.1686 537.8654 538.2834 537.87244 542.07806C 537.87946 545.87274 540.89795 548.97644 544.691 549.089C 546.40533 549.0628 548.055 548.43005 549.347 547.303C 549.5274 547.135 549.8033 547.12354 549.997 547.276L549.997 547.276L551.242 548.495C 551.3357 548.59534 551.3855 548.7289 551.38043 548.8661C 551.37537 549.0033 551.31586 549.1328 551.215 549.226C 549.4552 550.9349 547.0908 551.8782 544.638 551.85004C 541.15314 551.8556 537.9306 549.9996 536.1866 546.98254C 534.44257 543.96545 534.44257 540.2467 536.1866 537.2296C 537.9306 534.2126 541.15314 532.35657 544.638 532.36206L544.638 532.36206L544.637 532.362z" stroke="none" fill="#464545" fill-rule="nonzero" />
                <path transform="matrix(1 0 0 1 -490.823 -532.362)"  d="M558.865 532.362C 562.80615 532.3507 566.366 534.71466 567.8846 538.3515C 569.40314 541.98834 568.58136 546.1819 565.8024 548.97656C 563.02344 551.77124 558.83466 552.61664 555.1893 551.11865C 551.54395 549.6206 549.1599 546.07416 549.149 542.133C 549.13727 539.54755 550.1554 537.0638 551.97845 535.2304C 553.8015 533.39703 556.2795 532.36487 558.865 532.362zM558.865 549.225C 561.7569 549.2696 564.3885 547.5604 565.5236 544.9002C 566.65875 542.24005 566.0719 539.15753 564.0387 537.1005C 562.0055 535.0435 558.93 534.4209 556.2568 535.525C 553.58356 536.6292 551.84393 539.2407 551.855 542.133C 551.86176 546.0151 554.9832 549.1731 558.865 549.225z" stroke="none" fill="#464545" fill-rule="nonzero" />
                <path transform="matrix(1 0 0 1 -485.592 -532.362)"  d="M566.3 548.846L567 547.736C 567.08014 547.5709 567.23035 547.4507 567.40894 547.40857C 567.5876 547.3665 567.77563 547.40704 567.921 547.51904C 569.0468 548.7103 570.613 549.3862 572.252 549.38806C 574.12103 549.38806 575.31 548.25006 575.31 546.87103C 575.31 545.247 573.903 544.218 571.223 543.10803C 568.463 541.94403 566.29803 540.50806 566.29803 537.37006C 566.29803 535.25806 567.92206 532.36206 572.22504 532.36206C 574.0147 532.3952 575.7556 532.95135 577.23303 533.96204C 577.38055 534.0596 577.4815 534.2135 577.51215 534.3877C 577.5428 534.5619 577.5004 534.741 577.395 534.88306L577.395 534.88306L576.719 535.9111C 576.64246 536.0857 576.49207 536.2171 576.3087 536.26953C 576.12537 536.32196 575.9283 536.28986 575.771 536.18207C 574.724 535.36005 573.44574 534.8869 572.11597 534.82904C 569.84296 534.82904 569.058 536.26306 569.058 537.265C 569.058 538.80804 570.24896 539.75604 572.496 540.675C 575.63495 541.94696 578.316 543.436 578.316 546.738C 578.316 549.553 575.79895 551.85297 572.27997 551.85297C 570.14435 551.87274 568.0749 551.11255 566.45996 549.71497C 566.22 549.5 566 549.307 566.3 548.846z" stroke="none" fill="#464545" fill-rule="nonzero" />
			</g>
		</g>
		<g transform="matrix(1 0 0 1 535.524 503.261)">
			<g>
                <path transform="matrix(1 0 0 1 -528.237 -503.261)"  d="M535.89 507.088C 535.8901 508.636 534.9575 510.0315 533.52734 510.6238C 532.09717 511.2161 530.45105 510.8885 529.35657 509.79376C 528.26215 508.69904 527.935 507.0528 528.52765 505.62277C 529.1203 504.19275 530.5161 503.2606 532.064 503.26102C 534.17725 503.26157 535.8901 504.97482 535.89 507.088z" stroke="none" fill="#C60042" fill-rule="nonzero" />
                <path transform="matrix(1 0 0 1 -528.012 -500.111)"  d="M534.708 516.373C 534.708 517.9575 533.42346 519.242 531.839 519.242C 530.25446 519.242 528.97 517.9575 528.97 516.373C 528.97 514.7885 530.25446 513.50397 531.839 513.50397C 533.4233 513.5045 534.70746 514.7887 534.708 516.373z" stroke="none" fill="#C60042" fill-rule="nonzero" />
                <path transform="matrix(1 0 0 1 -527.787 -497.411)"  d="M533.527 524.195C 533.52734 524.9689 533.0615 525.6667 532.34674 525.96313C 531.63196 526.2595 530.80896 526.0961 530.2616 525.54913C 529.7143 525.0021 529.5504 524.1792 529.8465 523.46423C 530.1425 522.74927 530.8401 522.2831 531.61395 522.283C 532.6696 522.28406 533.52527 523.1393 533.527 524.195z" stroke="none" fill="#C60042" fill-rule="nonzero" />
			</g>
			<g transform="matrix(1 0 0 1 11.48 0)">
                <path transform="matrix(1 0 0 1 -537.017 -503.261)"  d="M544.671 507.088C 544.671 509.20148 542.9578 510.91483 540.84436 510.915C 538.7309 510.9152 537.01733 509.20215 537.01697 507.08868C 537.0166 504.97522 538.72955 503.26157 540.843 503.26102C 542.95654 503.26154 544.6699 504.97446 544.671 507.088z" stroke="none" fill="#C60042" fill-rule="nonzero" />
                <path transform="matrix(1 0 0 1 -536.792 -500.111)"  d="M543.487 516.373C 543.487 517.9575 542.20245 519.242 540.618 519.242C 539.03345 519.242 537.74896 517.9575 537.74896 516.373C 537.74896 514.7885 539.03345 513.50397 540.618 513.50397C 542.2023 513.5045 543.48645 514.7887 543.487 516.373z" stroke="none" fill="#C60042" fill-rule="nonzero" />
                <path transform="matrix(1 0 0 1 -536.567 -497.411)"  d="M542.307 524.195C 542.3078 524.96936 541.842 525.66785 541.12683 525.9647C 540.4117 526.26166 539.58813 526.0984 539.04034 525.55115C 538.4925 525.0039 538.32837 524.1805 538.6245 523.465C 538.92065 522.7496 539.61865 522.283 540.393 522.283C 541.4488 522.2841 542.30475 523.1392 542.307 524.195z" stroke="none" fill="#C60042" fill-rule="nonzero" />
			</g>
            <path transform="matrix(1 0 0 1 -522.837 -503.261)"  d="M553.448 507.088C 553.44745 509.20105 551.7341 510.91354 549.62103 510.913C 547.508 510.91245 545.7955 509.19907 545.796 507.08603C 545.7966 504.97296 547.50995 503.26047 549.623 503.26102C 550.6377 503.26126 551.6108 503.6646 552.3281 504.38232C 553.0454 505.1 553.4483 506.07327 553.448 507.088z" stroke="none" fill="#C60042" fill-rule="nonzero" />
            <path transform="matrix(1 0 0 1 -522.612 -500.111)"  d="M552.267 516.373C 552.26575 517.5339 551.5654 518.57965 550.4925 519.0227C 549.4196 519.4658 548.1854 519.219 547.3655 518.39734C 546.54553 517.5757 546.3013 516.34094 546.7466 515.269C 547.1919 514.197 548.23914 513.49884 549.4 513.5C 550.98505 513.5017 552.2686 514.78796 552.267 516.373z" stroke="none" fill="#C60042" fill-rule="nonzero" />
            <path transform="matrix(1 0 0 1 -522.387 -497.411)"  d="M551.086 524.195C 551.08685 524.9694 550.621 525.668 549.9057 525.96484C 549.1904 526.26166 548.36676 526.0982 547.81903 525.5508C 547.2713 525.00336 547.1074 524.1798 547.4039 523.46436C 547.70026 522.7489 548.3986 522.28265 549.173 522.283C 550.2287 522.28406 551.08435 523.1393 551.086 524.195z" stroke="none" fill="#C60042" fill-rule="nonzero" />
		</g>
	</g>
</g>
</svg>