<svg xmlns="http://www.w3.org/2000/svg" xmlns:xlink="http://www.w3.org/1999/xlink" width="1406" zoomAndPan="magnify" viewBox="0 0 1054.5 1144.500005" height="1526" preserveAspectRatio="xMidYMid meet" version="1.0"><defs><filter x="0%" y="0%" width="100%" height="100%" id="f7ea5f7541"><feColorMatrix values="0 0 0 0 1 0 0 0 0 1 0 0 0 0 1 0 0 0 1 0" color-interpolation-filters="sRGB"/></filter><g/><mask id="3c2c0fd938"><g filter="url(#f7ea5f7541)"><rect x="-105.45" width="1265.4" fill="#000000" y="-114.450001" height="1373.400006" fill-opacity="0.27"/></g></mask><clipPath id="c930e5df9d"><path d="M 0.53125 0.828125 L 461.59375 0.828125 L 461.59375 656.675781 L 0.53125 656.675781 Z M 0.53125 0.828125 " clip-rule="nonzero"/></clipPath><clipPath id="1f29819006"><path d="M 0.53125 0.828125 L 422 0.828125 L 422 508 L 0.53125 508 Z M 0.53125 0.828125 " clip-rule="nonzero"/></clipPath><clipPath id="2c1c6ac9c2"><rect x="0" width="422" y="0" height="508"/></clipPath><clipPath id="148bdbf357"><path d="M 143 150 L 461.59375 150 L 461.59375 656.675781 L 143 656.675781 Z M 143 150 " clip-rule="nonzero"/></clipPath><clipPath id="c851f6ab11"><rect x="0" width="319" y="0" height="507"/></clipPath><clipPath id="270db98219"><rect x="0" width="462" y="0" height="657"/></clipPath><clipPath id="8c955dde62"><rect x="0" width="462" y="0" height="657"/></clipPath></defs><g mask="url(#3c2c0fd938)"><g transform="matrix(1, 0, 0, 1, 230, 241)"><g clip-path="url(#8c955dde62)"><g clip-path="url(#c930e5df9d)"><g transform="matrix(1, 0, 0, 1, 0, -0.000000000000028422)"><g clip-path="url(#270db98219)"><g clip-path="url(#1f29819006)"><g transform="matrix(1, 0, 0, 1, 0, -0.000000000000028422)"><g clip-path="url(#2c1c6ac9c2)"><g fill="#ecede9" fill-opacity="1"><g transform="translate(2.037825, 466.327411)"><g><path d="M 239.75 1.875 C 210.6875 1.875 182.867188 -3.625 156.296875 -14.625 C 129.734375 -25.632812 106.070312 -41.515625 85.3125 -62.265625 C 63.726562 -83.859375 47.640625 -107.9375 37.046875 -134.5 C 26.460938 -161.070312 21.171875 -188.578125 21.171875 -217.015625 C 21.171875 -245.460938 26.460938 -273.070312 37.046875 -299.84375 C 47.640625 -326.625 63.726562 -350.597656 85.3125 -371.765625 C 106.070312 -392.523438 129.734375 -408.40625 156.296875 -419.40625 C 182.867188 -430.40625 210.6875 -435.90625 239.75 -435.90625 C 269.226562 -435.90625 297.25 -430.40625 323.8125 -419.40625 C 350.382812 -408.40625 374.050781 -392.523438 394.8125 -371.765625 C 395.644531 -370.941406 395.644531 -370.113281 394.8125 -369.28125 C 393.976562 -368.445312 393.148438 -368.445312 392.328125 -369.28125 C 371.984375 -389.625 348.628906 -405.296875 322.265625 -416.296875 C 295.898438 -427.296875 268.394531 -432.796875 239.75 -432.796875 C 216.914062 -432.796875 195.535156 -427.191406 175.609375 -415.984375 C 155.679688 -404.773438 138.140625 -389.3125 122.984375 -369.59375 C 107.835938 -349.875 96.007812 -326.9375 87.5 -300.78125 C 78.988281 -274.625 74.734375 -246.804688 74.734375 -217.328125 C 74.734375 -187.441406 78.988281 -159.523438 87.5 -133.578125 C 96.007812 -107.628906 107.835938 -84.796875 122.984375 -65.078125 C 138.140625 -45.359375 155.679688 -29.894531 175.609375 -18.6875 C 195.535156 -7.476562 216.914062 -1.875 239.75 -1.875 C 268.394531 -1.875 295.898438 -7.269531 322.265625 -18.0625 C 348.628906 -28.851562 371.984375 -44.421875 392.328125 -64.765625 C 393.148438 -65.597656 393.976562 -65.597656 394.8125 -64.765625 C 395.644531 -63.929688 395.644531 -63.097656 394.8125 -62.265625 C 374.050781 -41.515625 350.382812 -25.632812 323.8125 -14.625 C 297.25 -3.625 269.226562 1.875 239.75 1.875 Z M 239.75 1.875 "/></g></g></g></g></g></g><g clip-path="url(#148bdbf357)"><g transform="matrix(1, 0, 0, 1, 143, 150)"><g clip-path="url(#c851f6ab11)"><g fill="#ecede9" fill-opacity="1"><g transform="translate(1.457283, 465.72364)"><g><path d="M 21.171875 -0.625 L 130.15625 -349.984375 L 156.3125 -434.671875 C 156.71875 -434.671875 156.921875 -434.878906 156.921875 -435.296875 C 156.921875 -435.296875 156.921875 -435.5 156.921875 -435.90625 C 157.335938 -435.90625 157.546875 -435.90625 157.546875 -435.90625 C 157.960938 -435.90625 157.960938 -435.90625 157.546875 -435.90625 C 157.960938 -435.90625 158.171875 -435.90625 158.171875 -435.90625 C 158.171875 -435.90625 158.378906 -435.90625 158.796875 -435.90625 C 158.796875 -435.90625 159.003906 -435.90625 159.421875 -435.90625 C 159.421875 -435.5 159.421875 -435.296875 159.421875 -435.296875 C 159.421875 -434.878906 159.628906 -434.671875 160.046875 -434.671875 L 295.171875 -0.625 C 295.171875 -0.207031 294.960938 0.414062 294.546875 1.25 C 294.140625 1.664062 293.726562 1.875 293.3125 1.875 L 240.375 1.875 C 239.539062 1.875 239.125 1.457031 239.125 0.625 L 132.015625 -343.75 L 24.28125 0.625 C 24.28125 1.457031 23.867188 1.875 23.046875 1.875 C 22.628906 1.875 22.421875 1.875 22.421875 1.875 C 21.171875 1.457031 20.753906 0.625 21.171875 -0.625 Z M 21.171875 -0.625 "/></g></g></g></g></g></g></g></g></g></g></g></g></svg>